<?xml version="1.0" encoding="UTF-8"?>
<svg xmlns="http://www.w3.org/2000/svg" version="1.1" width="300" height="300" viewBox="0 0 300 300"><rect x="0" y="0" width="300" height="300" fill="#ffffff"/><g transform="scale(12)"><g transform="translate(0,0)"><path fill-rule="evenodd" d="M12 0L12 2L11 2L11 1L10 1L10 2L11 2L11 3L8 3L8 4L9 4L9 5L8 5L8 7L9 7L9 8L6 8L6 9L5 9L5 8L0 8L0 9L3 9L3 10L2 10L2 12L1 12L1 10L0 10L0 17L1 17L1 14L2 14L2 16L3 16L3 15L4 15L4 14L6 14L6 15L5 15L5 16L6 16L6 17L8 17L8 19L10 19L10 21L11 21L11 18L13 18L13 19L12 19L12 20L13 20L13 23L14 23L14 24L10 24L10 23L11 23L11 22L9 22L9 20L8 20L8 25L9 25L9 24L10 24L10 25L14 25L14 24L15 24L15 23L16 23L16 24L17 24L17 25L20 25L20 24L21 24L21 23L20 23L20 22L21 22L21 21L22 21L22 22L24 22L24 24L22 24L22 25L25 25L25 21L24 21L24 20L25 20L25 18L23 18L23 20L22 20L22 19L21 19L21 18L22 18L22 17L23 17L23 16L24 16L24 17L25 17L25 14L23 14L23 13L24 13L24 12L21 12L21 10L20 10L20 8L19 8L19 10L17 10L17 9L18 9L18 8L17 8L17 9L16 9L16 8L15 8L15 6L16 6L16 7L17 7L17 6L16 6L16 5L17 5L17 4L16 4L16 5L15 5L15 6L14 6L14 8L13 8L13 5L14 5L14 4L15 4L15 3L12 3L12 2L13 2L13 1L14 1L14 2L16 2L16 3L17 3L17 0L16 0L16 1L14 1L14 0ZM8 1L8 2L9 2L9 1ZM10 4L10 6L9 6L9 7L10 7L10 6L11 6L11 7L12 7L12 5L13 5L13 4L12 4L12 5L11 5L11 4ZM10 8L10 9L8 9L8 11L6 11L6 10L7 10L7 9L6 9L6 10L5 10L5 9L4 9L4 10L5 10L5 11L3 11L3 12L4 12L4 13L6 13L6 14L7 14L7 15L6 15L6 16L8 16L8 17L9 17L9 16L8 16L8 15L10 15L10 17L13 17L13 18L15 18L15 20L16 20L16 17L13 17L13 16L14 16L14 15L13 15L13 14L16 14L16 15L15 15L15 16L17 16L17 15L19 15L19 16L23 16L23 15L22 15L22 14L21 14L21 13L20 13L20 12L19 12L19 11L20 11L20 10L19 10L19 11L18 11L18 12L19 12L19 13L17 13L17 12L16 12L16 11L12 11L12 10L13 10L13 9L12 9L12 8ZM21 8L21 9L22 9L22 8ZM23 8L23 9L24 9L24 8ZM10 9L10 11L11 11L11 9ZM14 9L14 10L16 10L16 9ZM23 10L23 11L25 11L25 10ZM5 11L5 12L6 12L6 13L8 13L8 14L9 14L9 13L11 13L11 14L10 14L10 15L11 15L11 16L12 16L12 15L11 15L11 14L13 14L13 13L15 13L15 12L13 12L13 13L11 13L11 12L6 12L6 11ZM2 13L2 14L3 14L3 13ZM16 13L16 14L17 14L17 13ZM19 13L19 15L20 15L20 13ZM17 17L17 20L20 20L20 17ZM18 18L18 19L19 19L19 18ZM13 19L13 20L14 20L14 19ZM14 21L14 22L15 22L15 21ZM16 21L16 23L18 23L18 24L19 24L19 22L20 22L20 21L19 21L19 22L18 22L18 21ZM0 0L0 7L7 7L7 0ZM1 1L1 6L6 6L6 1ZM2 2L2 5L5 5L5 2ZM18 0L18 7L25 7L25 0ZM19 1L19 6L24 6L24 1ZM20 2L20 5L23 5L23 2ZM0 18L0 25L7 25L7 18ZM1 19L1 24L6 24L6 19ZM2 20L2 23L5 23L5 20Z" fill="#000000"/></g></g></svg>
