<?xml version="1.0" encoding="UTF-8"?>
<svg xmlns="http://www.w3.org/2000/svg" version="1.1" width="300" height="300" viewBox="0 0 300 300"><rect x="0" y="0" width="300" height="300" fill="#ffffff"/><g transform="scale(12)"><g transform="translate(0,0)"><path fill-rule="evenodd" d="M12 0L12 1L14 1L14 2L16 2L16 3L17 3L17 0L16 0L16 1L14 1L14 0ZM8 1L8 2L9 2L9 1ZM10 1L10 2L11 2L11 1ZM8 3L8 4L9 4L9 5L8 5L8 7L9 7L9 8L6 8L6 9L5 9L5 8L0 8L0 10L2 10L2 9L3 9L3 11L1 11L1 12L0 12L0 17L1 17L1 14L2 14L2 17L3 17L3 16L4 16L4 17L5 17L5 16L4 16L4 15L10 15L10 16L9 16L9 17L8 17L8 19L10 19L10 22L9 22L9 20L8 20L8 25L9 25L9 23L10 23L10 22L13 22L13 23L14 23L14 24L11 24L11 25L14 25L14 24L15 24L15 23L16 23L16 24L17 24L17 25L20 25L20 24L21 24L21 23L20 23L20 22L21 22L21 21L22 21L22 22L24 22L24 24L22 24L22 25L25 25L25 21L24 21L24 20L25 20L25 18L23 18L23 20L22 20L22 19L21 19L21 18L22 18L22 17L23 17L23 16L24 16L24 17L25 17L25 14L23 14L23 13L24 13L24 12L21 12L21 10L20 10L20 8L19 8L19 10L17 10L17 9L18 9L18 8L17 8L17 9L16 9L16 8L15 8L15 6L16 6L16 7L17 7L17 6L16 6L16 5L17 5L17 4L16 4L16 5L15 5L15 6L14 6L14 8L13 8L13 6L12 6L12 8L11 8L11 6L10 6L10 4L11 4L11 5L12 5L12 4L13 4L13 5L14 5L14 4L15 4L15 3L12 3L12 4L11 4L11 3ZM9 6L9 7L10 7L10 6ZM10 8L10 9L6 9L6 10L8 10L8 12L7 12L7 11L6 11L6 12L7 12L7 13L6 13L6 14L8 14L8 12L11 12L11 13L10 13L10 15L11 15L11 16L12 16L12 17L11 17L11 18L10 18L10 19L11 19L11 21L13 21L13 20L14 20L14 19L12 19L12 18L15 18L15 20L16 20L16 17L13 17L13 16L14 16L14 15L13 15L13 16L12 16L12 14L16 14L16 15L15 15L15 16L17 16L17 15L19 15L19 16L23 16L23 15L22 15L22 14L21 14L21 13L20 13L20 12L19 12L19 11L20 11L20 10L19 10L19 11L18 11L18 12L19 12L19 13L17 13L17 12L16 12L16 11L12 11L12 10L11 10L11 11L10 11L10 9L11 9L11 8ZM12 8L12 9L13 9L13 8ZM21 8L21 9L22 9L22 8ZM23 8L23 9L24 9L24 8ZM4 9L4 10L5 10L5 9ZM14 9L14 10L16 10L16 9ZM23 10L23 11L25 11L25 10ZM11 11L11 12L12 12L12 13L11 13L11 14L12 14L12 13L15 13L15 12L12 12L12 11ZM1 12L1 13L2 13L2 12ZM4 12L4 13L5 13L5 12ZM16 13L16 14L17 14L17 13ZM19 13L19 15L20 15L20 13ZM6 16L6 17L7 17L7 16ZM17 17L17 20L20 20L20 17ZM18 18L18 19L19 19L19 18ZM14 21L14 22L15 22L15 21ZM16 21L16 23L18 23L18 24L19 24L19 22L20 22L20 21L19 21L19 22L18 22L18 21ZM0 0L0 7L7 7L7 0ZM1 1L1 6L6 6L6 1ZM2 2L2 5L5 5L5 2ZM18 0L18 7L25 7L25 0ZM19 1L19 6L24 6L24 1ZM20 2L20 5L23 5L23 2ZM0 18L0 25L7 25L7 18ZM1 19L1 24L6 24L6 19ZM2 20L2 23L5 23L5 20Z" fill="#000000"/></g></g></svg>
