<?xml version="1.0" encoding="UTF-8"?>
<svg xmlns="http://www.w3.org/2000/svg" version="1.1" width="300" height="300" viewBox="0 0 300 300"><rect x="0" y="0" width="300" height="300" fill="#ffffff"/><g transform="scale(12)"><g transform="translate(0,0)"><path fill-rule="evenodd" d="M9 0L9 1L8 1L8 3L9 3L9 4L8 4L8 8L6 8L6 9L4 9L4 8L3 8L3 9L4 9L4 10L2 10L2 8L0 8L0 10L2 10L2 11L0 11L0 12L1 12L1 13L3 13L3 15L1 15L1 14L0 14L0 15L1 15L1 16L0 16L0 17L2 17L2 16L4 16L4 15L5 15L5 16L6 16L6 17L7 17L7 16L8 16L8 19L9 19L9 21L8 21L8 22L9 22L9 23L8 23L8 25L9 25L9 24L10 24L10 25L22 25L22 24L19 24L19 23L16 23L16 24L14 24L14 23L12 23L12 24L10 24L10 19L9 19L9 18L13 18L13 19L14 19L14 20L13 20L13 21L11 21L11 22L13 22L13 21L15 21L15 22L16 22L16 21L17 21L17 22L18 22L18 21L19 21L19 22L20 22L20 23L22 23L22 22L23 22L23 21L22 21L22 22L21 22L21 20L23 20L23 19L25 19L25 16L24 16L24 18L22 18L22 17L23 17L23 16L22 16L22 17L21 17L21 16L20 16L20 13L19 13L19 11L20 11L20 10L19 10L19 9L21 9L21 8L18 8L18 9L17 9L17 6L16 6L16 5L17 5L17 4L15 4L15 3L16 3L16 0L12 0L12 1L11 1L11 0ZM9 1L9 2L11 2L11 1ZM12 1L12 3L11 3L11 4L9 4L9 5L10 5L10 6L9 6L9 7L10 7L10 8L8 8L8 9L6 9L6 10L8 10L8 11L6 11L6 12L4 12L4 13L5 13L5 15L6 15L6 16L7 16L7 15L6 15L6 14L8 14L8 15L9 15L9 17L10 17L10 16L13 16L13 17L15 17L15 18L14 18L14 19L15 19L15 21L16 21L16 19L15 19L15 18L16 18L16 16L19 16L19 14L18 14L18 15L16 15L16 14L17 14L17 13L15 13L15 12L16 12L16 6L15 6L15 9L13 9L13 8L14 8L14 6L13 6L13 8L12 8L12 5L14 5L14 3L15 3L15 2L14 2L14 1ZM11 4L11 5L12 5L12 4ZM10 6L10 7L11 7L11 6ZM10 8L10 10L9 10L9 11L11 11L11 12L12 12L12 11L13 11L13 13L14 13L14 12L15 12L15 11L13 11L13 10L12 10L12 11L11 11L11 9L12 9L12 8ZM22 8L22 9L23 9L23 11L24 11L24 12L23 12L23 14L24 14L24 15L25 15L25 13L24 13L24 12L25 12L25 9L24 9L24 8ZM4 10L4 11L5 11L5 10ZM21 10L21 11L22 11L22 10ZM6 12L6 13L8 13L8 12ZM9 13L9 14L11 14L11 15L13 15L13 16L15 16L15 14L11 14L11 13ZM21 13L21 15L22 15L22 13ZM17 17L17 20L20 20L20 17ZM18 18L18 19L19 19L19 18ZM11 19L11 20L12 20L12 19ZM24 22L24 23L25 23L25 22ZM23 24L23 25L25 25L25 24ZM0 0L0 7L7 7L7 0ZM1 1L1 6L6 6L6 1ZM2 2L2 5L5 5L5 2ZM18 0L18 7L25 7L25 0ZM19 1L19 6L24 6L24 1ZM20 2L20 5L23 5L23 2ZM0 18L0 25L7 25L7 18ZM1 19L1 24L6 24L6 19ZM2 20L2 23L5 23L5 20Z" fill="#000000"/></g></g></svg>
