<?xml version="1.0" encoding="UTF-8"?>
<svg xmlns="http://www.w3.org/2000/svg" version="1.1" width="300" height="300" viewBox="0 0 300 300"><rect x="0" y="0" width="300" height="300" fill="#ffffff"/><g transform="scale(12)"><g transform="translate(0,0)"><path fill-rule="evenodd" d="M8 0L8 1L11 1L11 3L10 3L10 2L9 2L9 3L10 3L10 5L9 5L9 6L8 6L8 8L9 8L9 9L7 9L7 8L6 8L6 9L5 9L5 8L3 8L3 10L2 10L2 11L3 11L3 12L4 12L4 11L3 11L3 10L6 10L6 11L10 11L10 10L11 10L11 9L10 9L10 7L11 7L11 6L12 6L12 9L14 9L14 10L12 10L12 11L14 11L14 12L13 12L13 13L12 13L12 14L13 14L13 15L12 15L12 16L11 16L11 18L9 18L9 17L8 17L8 18L9 18L9 19L10 19L10 20L8 20L8 22L9 22L9 23L8 23L8 25L9 25L9 24L10 24L10 25L14 25L14 22L15 22L15 21L16 21L16 22L17 22L17 23L18 23L18 22L19 22L19 24L20 24L20 25L22 25L22 24L24 24L24 25L25 25L25 20L23 20L23 21L22 21L22 22L19 22L19 21L21 21L21 20L22 20L22 19L23 19L23 18L24 18L24 19L25 19L25 18L24 18L24 17L25 17L25 16L23 16L23 15L25 15L25 14L23 14L23 13L24 13L24 12L25 12L25 10L24 10L24 12L23 12L23 9L19 9L19 8L18 8L18 9L19 9L19 10L17 10L17 12L16 12L16 9L17 9L17 6L16 6L16 7L15 7L15 5L14 5L14 7L13 7L13 6L12 6L12 5L13 5L13 4L14 4L14 3L15 3L15 4L17 4L17 3L16 3L16 2L17 2L17 1L16 1L16 0L14 0L14 1L12 1L12 0ZM14 1L14 2L16 2L16 1ZM12 2L12 4L13 4L13 2ZM10 5L10 6L9 6L9 7L10 7L10 6L11 6L11 5ZM14 7L14 8L15 8L15 7ZM0 8L0 9L2 9L2 8ZM24 8L24 9L25 9L25 8ZM6 9L6 10L7 10L7 9ZM9 9L9 10L10 10L10 9ZM21 10L21 12L20 12L20 13L21 13L21 12L22 12L22 13L23 13L23 12L22 12L22 10ZM0 11L0 12L1 12L1 11ZM18 11L18 12L17 12L17 14L16 14L16 15L13 15L13 17L12 17L12 18L11 18L11 19L12 19L12 21L11 21L11 20L10 20L10 21L9 21L9 22L10 22L10 21L11 21L11 22L12 22L12 23L13 23L13 22L12 22L12 21L13 21L13 19L12 19L12 18L14 18L14 19L16 19L16 18L14 18L14 17L15 17L15 16L17 16L17 15L18 15L18 14L19 14L19 15L22 15L22 14L19 14L19 13L18 13L18 12L19 12L19 11ZM6 12L6 13L5 13L5 14L6 14L6 15L7 15L7 16L6 16L6 17L7 17L7 16L8 16L8 15L9 15L9 16L10 16L10 15L11 15L11 12L8 12L8 15L7 15L7 14L6 14L6 13L7 13L7 12ZM14 12L14 14L15 14L15 13L16 13L16 12ZM0 13L0 17L1 17L1 15L2 15L2 17L3 17L3 16L4 16L4 17L5 17L5 16L4 16L4 15L3 15L3 14L4 14L4 13ZM9 14L9 15L10 15L10 14ZM21 16L21 17L22 17L22 16ZM17 17L17 20L20 20L20 17ZM18 18L18 19L19 19L19 18ZM14 20L14 21L15 21L15 20ZM10 23L10 24L11 24L11 23ZM20 23L20 24L21 24L21 23ZM16 24L16 25L18 25L18 24ZM0 0L0 7L7 7L7 0ZM1 1L1 6L6 6L6 1ZM2 2L2 5L5 5L5 2ZM18 0L18 7L25 7L25 0ZM19 1L19 6L24 6L24 1ZM20 2L20 5L23 5L23 2ZM0 18L0 25L7 25L7 18ZM1 19L1 24L6 24L6 19ZM2 20L2 23L5 23L5 20Z" fill="#000000"/></g></g></svg>
