<?xml version="1.0" encoding="UTF-8"?>
<svg xmlns="http://www.w3.org/2000/svg" version="1.1" width="300" height="300" viewBox="0 0 300 300"><rect x="0" y="0" width="300" height="300" fill="#ffffff"/><g transform="scale(12)"><g transform="translate(0,0)"><path fill-rule="evenodd" d="M8 0L8 4L9 4L9 5L8 5L8 7L9 7L9 6L10 6L10 9L11 9L11 8L12 8L12 9L13 9L13 8L12 8L12 7L13 7L13 6L12 6L12 7L11 7L11 3L10 3L10 2L9 2L9 0ZM13 0L13 1L11 1L11 2L12 2L12 5L14 5L14 8L15 8L15 5L16 5L16 7L17 7L17 5L16 5L16 4L17 4L17 3L16 3L16 2L17 2L17 0L16 0L16 2L15 2L15 1L14 1L14 0ZM13 1L13 3L14 3L14 1ZM15 3L15 4L16 4L16 3ZM0 8L0 9L2 9L2 10L0 10L0 14L1 14L1 13L2 13L2 15L4 15L4 14L5 14L5 15L7 15L7 16L4 16L4 17L8 17L8 18L9 18L9 19L8 19L8 21L9 21L9 23L8 23L8 25L9 25L9 24L12 24L12 25L14 25L14 23L15 23L15 25L16 25L16 23L18 23L18 24L20 24L20 25L21 25L21 24L20 24L20 21L23 21L23 23L22 23L22 22L21 22L21 23L22 23L22 25L25 25L25 24L24 24L24 22L25 22L25 19L23 19L23 18L22 18L22 17L23 17L23 16L24 16L24 17L25 17L25 15L23 15L23 11L20 11L20 10L22 10L22 9L25 9L25 8L21 8L21 9L20 9L20 8L19 8L19 9L20 9L20 10L19 10L19 11L18 11L18 10L17 10L17 9L14 9L14 10L13 10L13 11L12 11L12 12L11 12L11 13L9 13L9 12L10 12L10 11L11 11L11 10L9 10L9 9L7 9L7 8L4 8L4 10L3 10L3 9L2 9L2 8ZM6 9L6 10L5 10L5 11L4 11L4 13L3 13L3 14L4 14L4 13L5 13L5 12L8 12L8 11L9 11L9 10L7 10L7 9ZM6 10L6 11L7 11L7 10ZM13 11L13 12L12 12L12 13L11 13L11 14L12 14L12 13L15 13L15 12L16 12L16 13L17 13L17 14L16 14L16 16L15 16L15 17L14 17L14 15L15 15L15 14L14 14L14 15L12 15L12 16L11 16L11 15L10 15L10 14L9 14L9 13L8 13L8 15L10 15L10 16L11 16L11 19L9 19L9 20L12 20L12 21L11 21L11 22L12 22L12 21L13 21L13 22L14 22L14 21L13 21L13 20L14 20L14 18L15 18L15 23L16 23L16 22L17 22L17 21L16 21L16 18L15 18L15 17L16 17L16 16L19 16L19 13L17 13L17 11ZM20 12L20 13L22 13L22 12ZM6 13L6 14L7 14L7 13ZM17 14L17 15L18 15L18 14ZM20 14L20 16L22 16L22 14ZM0 16L0 17L3 17L3 16ZM12 16L12 17L13 17L13 18L14 18L14 17L13 17L13 16ZM17 17L17 20L20 20L20 17ZM18 18L18 19L19 19L19 18ZM12 19L12 20L13 20L13 19ZM21 19L21 20L22 20L22 19ZM12 23L12 24L13 24L13 23ZM0 0L0 7L7 7L7 0ZM1 1L1 6L6 6L6 1ZM2 2L2 5L5 5L5 2ZM18 0L18 7L25 7L25 0ZM19 1L19 6L24 6L24 1ZM20 2L20 5L23 5L23 2ZM0 18L0 25L7 25L7 18ZM1 19L1 24L6 24L6 19ZM2 20L2 23L5 23L5 20Z" fill="#000000"/></g></g></svg>
