<?xml version="1.0" encoding="UTF-8"?>
<svg xmlns="http://www.w3.org/2000/svg" version="1.1" width="300" height="300" viewBox="0 0 300 300"><rect x="0" y="0" width="300" height="300" fill="#ffffff"/><g transform="scale(12)"><g transform="translate(0,0)"><path fill-rule="evenodd" d="M9 0L9 3L8 3L8 5L9 5L9 6L8 6L8 7L9 7L9 9L8 9L8 8L5 8L5 10L4 10L4 9L2 9L2 8L0 8L0 11L1 11L1 10L3 10L3 11L4 11L4 12L2 12L2 15L3 15L3 17L5 17L5 16L4 16L4 15L5 15L5 14L6 14L6 15L8 15L8 16L6 16L6 17L8 17L8 20L9 20L9 18L10 18L10 19L12 19L12 18L10 18L10 17L9 17L9 16L10 16L10 15L9 15L9 13L10 13L10 14L11 14L11 11L10 11L10 10L11 10L11 8L12 8L12 9L14 9L14 10L15 10L15 11L14 11L14 12L15 12L15 15L14 15L14 14L12 14L12 15L11 15L11 16L13 16L13 17L15 17L15 15L18 15L18 14L16 14L16 12L15 12L15 11L17 11L17 12L18 12L18 13L19 13L19 16L16 16L16 20L15 20L15 18L13 18L13 19L14 19L14 20L10 20L10 21L9 21L9 23L8 23L8 25L10 25L10 23L11 23L11 22L14 22L14 21L15 21L15 23L14 23L14 24L15 24L15 23L16 23L16 25L17 25L17 24L19 24L19 25L22 25L22 23L23 23L23 22L24 22L24 25L25 25L25 21L24 21L24 20L22 20L22 19L23 19L23 17L24 17L24 16L25 16L25 14L24 14L24 13L25 13L25 10L24 10L24 9L22 9L22 8L20 8L20 9L19 9L19 10L18 10L18 11L17 11L17 9L15 9L15 8L13 8L13 6L14 6L14 7L15 7L15 6L14 6L14 5L15 5L15 4L14 4L14 3L15 3L15 1L14 1L14 0L13 0L13 1L14 1L14 3L13 3L13 2L12 2L12 3L13 3L13 4L11 4L11 3L10 3L10 1L11 1L11 0ZM16 1L16 2L17 2L17 1ZM9 3L9 5L11 5L11 7L10 7L10 6L9 6L9 7L10 7L10 8L11 8L11 7L12 7L12 5L11 5L11 4L10 4L10 3ZM13 4L13 5L14 5L14 4ZM16 4L16 8L17 8L17 4ZM6 9L6 10L5 10L5 11L6 11L6 12L8 12L8 13L6 13L6 14L8 14L8 13L9 13L9 12L10 12L10 11L8 11L8 10L7 10L7 9ZM9 9L9 10L10 10L10 9ZM21 9L21 11L20 11L20 12L19 12L19 13L20 13L20 16L21 16L21 13L22 13L22 15L23 15L23 13L24 13L24 12L23 12L23 11L22 11L22 9ZM6 10L6 11L7 11L7 10ZM12 10L12 13L13 13L13 10ZM21 11L21 12L22 12L22 11ZM4 12L4 13L3 13L3 15L4 15L4 13L5 13L5 12ZM0 13L0 17L1 17L1 13ZM13 15L13 16L14 16L14 15ZM17 17L17 20L20 20L20 17ZM21 17L21 19L22 19L22 17ZM18 18L18 19L19 19L19 18ZM24 18L24 19L25 19L25 18ZM19 21L19 22L17 22L17 23L20 23L20 24L21 24L21 23L22 23L22 22L23 22L23 21ZM12 23L12 24L11 24L11 25L13 25L13 23ZM0 0L0 7L7 7L7 0ZM1 1L1 6L6 6L6 1ZM2 2L2 5L5 5L5 2ZM18 0L18 7L25 7L25 0ZM19 1L19 6L24 6L24 1ZM20 2L20 5L23 5L23 2ZM0 18L0 25L7 25L7 18ZM1 19L1 24L6 24L6 19ZM2 20L2 23L5 23L5 20Z" fill="#000000"/></g></g></svg>
